<svg id="visual" viewBox="0 0 900 600" width="900" height="600" xmlns="http://www.w3.org/2000/svg" xmlns:xlink="http://www.w3.org/1999/xlink" version="1.1"><rect x="0" y="0" width="900" height="600" fill="#001220"></rect><defs><linearGradient id="grad1_0" x1="33.3%" y1="0%" x2="100%" y2="100%"><stop offset="20%" stop-color="#fbae3c" stop-opacity="1"></stop><stop offset="80%" stop-color="#fbae3c" stop-opacity="1"></stop></linearGradient></defs><defs><linearGradient id="grad1_1" x1="33.3%" y1="0%" x2="100%" y2="100%"><stop offset="20%" stop-color="#fbae3c" stop-opacity="1"></stop><stop offset="80%" stop-color="#eb7458" stop-opacity="1"></stop></linearGradient></defs><defs><linearGradient id="grad1_2" x1="33.3%" y1="0%" x2="100%" y2="100%"><stop offset="20%" stop-color="#b84e6c" stop-opacity="1"></stop><stop offset="80%" stop-color="#eb7458" stop-opacity="1"></stop></linearGradient></defs><defs><linearGradient id="grad1_3" x1="33.3%" y1="0%" x2="100%" y2="100%"><stop offset="20%" stop-color="#b84e6c" stop-opacity="1"></stop><stop offset="80%" stop-color="#713c69" stop-opacity="1"></stop></linearGradient></defs><defs><linearGradient id="grad1_4" x1="33.3%" y1="0%" x2="100%" y2="100%"><stop offset="20%" stop-color="#2d2b4c" stop-opacity="1"></stop><stop offset="80%" stop-color="#713c69" stop-opacity="1"></stop></linearGradient></defs><defs><linearGradient id="grad1_5" x1="33.3%" y1="0%" x2="100%" y2="100%"><stop offset="20%" stop-color="#2d2b4c" stop-opacity="1"></stop><stop offset="80%" stop-color="#001220" stop-opacity="1"></stop></linearGradient></defs><defs><linearGradient id="grad2_0" x1="0%" y1="0%" x2="66.7%" y2="100%"><stop offset="20%" stop-color="#fbae3c" stop-opacity="1"></stop><stop offset="80%" stop-color="#fbae3c" stop-opacity="1"></stop></linearGradient></defs><defs><linearGradient id="grad2_1" x1="0%" y1="0%" x2="66.7%" y2="100%"><stop offset="20%" stop-color="#eb7458" stop-opacity="1"></stop><stop offset="80%" stop-color="#fbae3c" stop-opacity="1"></stop></linearGradient></defs><defs><linearGradient id="grad2_2" x1="0%" y1="0%" x2="66.7%" y2="100%"><stop offset="20%" stop-color="#eb7458" stop-opacity="1"></stop><stop offset="80%" stop-color="#b84e6c" stop-opacity="1"></stop></linearGradient></defs><defs><linearGradient id="grad2_3" x1="0%" y1="0%" x2="66.7%" y2="100%"><stop offset="20%" stop-color="#713c69" stop-opacity="1"></stop><stop offset="80%" stop-color="#b84e6c" stop-opacity="1"></stop></linearGradient></defs><defs><linearGradient id="grad2_4" x1="0%" y1="0%" x2="66.7%" y2="100%"><stop offset="20%" stop-color="#713c69" stop-opacity="1"></stop><stop offset="80%" stop-color="#2d2b4c" stop-opacity="1"></stop></linearGradient></defs><defs><linearGradient id="grad2_5" x1="0%" y1="0%" x2="66.7%" y2="100%"><stop offset="20%" stop-color="#001220" stop-opacity="1"></stop><stop offset="80%" stop-color="#2d2b4c" stop-opacity="1"></stop></linearGradient></defs><g transform="translate(900, 0)"><path d="M0 486.7C-51.9 454.5 -103.8 422.3 -167.6 404.7C-231.5 387 -307.3 384 -344.2 344.2C-381.1 304.3 -379.1 227.7 -396.3 164.2C-413.6 100.7 -450.2 50.3 -486.7 0L0 0Z" fill="#131f37"></path><path d="M0 405.6C-43.2 378.8 -86.5 351.9 -139.7 337.2C-192.9 322.5 -256.1 320 -286.8 286.8C-317.6 253.6 -315.9 189.7 -330.3 136.8C-344.7 83.9 -375.2 41.9 -405.6 0L0 0Z" fill="#4d345e"></path><path d="M0 324.5C-34.6 303 -69.2 281.5 -111.7 269.8C-154.3 258 -204.9 256 -229.5 229.5C-254.1 202.9 -252.7 151.8 -264.2 109.4C-275.7 67.1 -300.1 33.6 -324.5 0L0 0Z" fill="#96446e"></path><path d="M0 243.4C-25.9 227.3 -51.9 211.1 -83.8 202.3C-115.7 193.5 -153.6 192 -172.1 172.1C-190.5 152.2 -189.5 113.8 -198.2 82.1C-206.8 50.3 -225.1 25.2 -243.4 0L0 0Z" fill="#d55e64"></path><path d="M0 162.2C-17.3 151.5 -34.6 140.8 -55.9 134.9C-77.2 129 -102.4 128 -114.7 114.7C-127 101.4 -126.4 75.9 -132.1 54.7C-137.9 33.6 -150.1 16.8 -162.2 0L0 0Z" fill="#f88f4a"></path><path d="M0 81.1C-8.6 75.8 -17.3 70.4 -27.9 67.4C-38.6 64.5 -51.2 64 -57.4 57.4C-63.5 50.7 -63.2 37.9 -66.1 27.4C-68.9 16.8 -75 8.4 -81.1 0L0 0Z" fill="#fbae3c"></path></g><g transform="translate(0, 600)"><path d="M0 -486.7C50 -445.7 99.9 -404.6 160 -386.2C220 -367.7 290.1 -371.9 342.2 -342.2C394.4 -312.5 428.6 -249 449.7 -186.3C470.8 -123.6 478.8 -61.8 486.7 0L0 0Z" fill="#131f37"></path><path d="M0 -405.6C41.6 -371.4 83.3 -337.2 133.3 -321.8C183.3 -306.5 241.7 -309.9 285.2 -285.2C328.7 -260.5 357.2 -207.5 374.7 -155.2C392.3 -103 399 -51.5 405.6 0L0 0Z" fill="#4d345e"></path><path d="M0 -324.5C33.3 -297.1 66.6 -269.7 106.6 -257.5C146.7 -245.2 193.4 -248 228.2 -228.2C262.9 -208.4 285.7 -166 299.8 -124.2C313.9 -82.4 319.2 -41.2 324.5 0L0 0Z" fill="#96446e"></path><path d="M0 -243.4C25 -222.8 50 -202.3 80 -193.1C110 -183.9 145 -186 171.1 -171.1C197.2 -156.3 214.3 -124.5 224.8 -93.1C235.4 -61.8 239.4 -30.9 243.4 0L0 0Z" fill="#d55e64"></path><path d="M0 -162.2C16.7 -148.6 33.3 -134.9 53.3 -128.7C73.3 -122.6 96.7 -124 114.1 -114.1C131.5 -104.2 142.9 -83 149.9 -62.1C156.9 -41.2 159.6 -20.6 162.2 0L0 0Z" fill="#f88f4a"></path><path d="M0 -81.1C8.3 -74.3 16.7 -67.4 26.7 -64.4C36.7 -61.3 48.3 -62 57 -57C65.7 -52.1 71.4 -41.5 74.9 -31C78.5 -20.6 79.8 -10.3 81.1 0L0 0Z" fill="#fbae3c"></path></g></svg>